<?xml version="1.0" encoding="utf-8"?>
<!-- Generator: Adobe Illustrator 17.0.0, SVG Export Plug-In . SVG Version: 6.00 Build 0)  -->
<!DOCTYPE svg PUBLIC "-//W3C//DTD SVG 1.1//EN" "http://www.w3.org/Graphics/SVG/1.1/DTD/svg11.dtd">
<svg version="1.1" id="Layer_1" xmlns="http://www.w3.org/2000/svg" xmlns:xlink="http://www.w3.org/1999/xlink" x="0px" y="0px"
	 width="320.977px" height="54.041px" viewBox="0 0 320.977 54.041" enable-background="new 0 0 320.977 54.041"
	 xml:space="preserve">
<g>
	<path fill="#FFFFFF" d="M0,53.283h22.49v-7.096H8.075v-9.696h14.145v-7.096H8.075v-9.1H22.49V13.2H0V53.283z"/>
	<path fill="#FFFFFF" d="M35.549,53.283h9.05L53.921,37.9l9.701,15.383h9.213L58.961,32.375L71.425,13.2h-9.105l-8.075,13.108
		L46.063,13.2h-9.159l12.573,19.012L35.549,53.283z"/>
	<path fill="#FFFFFF" d="M86.923,13.2v40.083h8.075V39.525h4.932c5.853,0,8.563-0.975,11.272-3.196
		c2.547-2.058,4.227-6.175,4.227-10.129s-1.626-7.854-4.552-10.237c-2.33-1.787-5.04-2.762-11.814-2.762H86.923z M94.998,20.296
		h4.444c2.005,0,3.848,0.162,5.474,1.029c1.572,0.758,2.764,2.437,2.764,4.983c0,2.546-1.192,4.333-2.656,5.092
		c-1.626,0.867-3.414,1.029-5.257,1.029h-4.769V20.296z"/>
	<path fill="#FFFFFF" d="M179.157,40.825c-0.054,7.746,4.661,13.216,13.765,13.216c9.43,0,13.386-6.012,13.386-12.458
		c0-5.687-3.414-8.612-9.538-11.267c-6.774-2.817-8.942-3.575-8.888-6.554c0-2.708,2.276-4.55,4.932-4.55
		c3.956,0,4.661,3.087,4.986,4.929h7.966c-0.325-8.883-7.37-11.7-12.681-11.7c-6.503,0-13.277,4.171-13.277,11.862
		c0,7.583,6.991,10.075,10.026,11.158c5.582,2.221,8.454,3.087,8.454,6.5c0,2.817-2.384,5.308-5.474,5.308
		c-1.734,0-5.365-1.029-5.636-6.446H179.157z"/>
	<path fill="#FFFFFF" d="M217.904,13.2v24.645c0,5.362,0.542,8.829,4.227,12.35c2.981,3.087,7.587,3.846,10.459,3.846
		c4.444,0,7.858-1.517,10.297-3.846c3.089-2.817,4.227-6.392,4.227-12.35V13.2h-8.075v24.645c0,2.167,0,4.279-1.138,6.229
		c-0.867,1.625-2.656,2.871-5.365,2.871c-2.655,0-4.444-1.3-5.419-3.033c-1.084-2.004-1.138-4.062-1.138-6.067V13.2H217.904z"/>
	<path fill="#FFFFFF" d="M276.214,36.058c5.474-0.921,8.346-6.121,8.346-11.321c0-8.721-5.582-12.296-13.657-12.296h-10.785v40.841
		h7.966V36.816h0.108l9.917,16.466h9.646L276.214,36.058z M268.085,18.942h1.084c4.227,0,7.425,0.975,7.425,6.012
		c0,4.983-3.089,6.283-7.479,6.283h-1.03V18.942z"/>
	<path fill="#FFFFFF" d="M298.487,53.283h22.49v-7.096h-14.415v-9.696h14.145v-7.096h-14.145v-9.1h14.415V13.2h-22.49V53.283z"/>
	<path fill="#FFFFFF" d="M127.79,20.895c0,10.581,8.555,20.147,20.692,20.147c12.084,0,20.853-9.299,20.853-20.521
		S160.512,0,148.535,0c-11.014,0-20.746,8.176-20.746,20.842V20.895z M135.756,20.468c0-6.947,4.919-13.467,12.832-13.467
		c8.074,0,12.779,6.947,12.779,13.574c0,6.52-4.705,13.467-12.725,13.467c-7.699,0-12.886-6.306-12.886-13.52V20.468z"/>
</g>
</svg>
